<svg width="119" height="36" viewBox="0 0 119 36" fill="none" xmlns="http://www.w3.org/2000/svg">
<rect width="119" height="36" fill="#fff"/>
<rect width="119" height="36" fill="#000"/>
<circle cx="17.5" cy="18.5" r="17.5" fill="#0B36A8"/>
<path d="M17.7227 10.8906L18.0508 12.2617C18.3555 13.5117 18.6562 14.6055 18.9531 15.543C19.25 16.4805 20.0117 18.6484 21.2383 22.0469C21.3555 21.6172 21.5898 20.6641 21.9414 19.1875C22.3945 17.2656 22.6953 16.0586 22.8438 15.5664C23.2812 14.1211 23.7031 13.0586 24.1094 12.3789C24.5156 11.6992 24.9688 11.2109 25.4688 10.9141C25.9688 10.6172 26.5352 10.4688 27.168 10.4688C27.6758 10.4688 28.0625 10.5664 28.3281 10.7617C28.6016 10.957 28.7383 11.1914 28.7383 11.4648C28.7383 11.6602 28.6641 11.832 28.5156 11.9805C28.375 12.1289 28.207 12.2031 28.0117 12.2031C27.8711 12.2031 27.707 12.1641 27.5195 12.0859C27.1289 11.9297 26.8945 11.8398 26.8164 11.8164C26.6758 11.7852 26.5234 11.7695 26.3594 11.7695C25.9766 11.7695 25.6484 11.8984 25.375 12.1562C24.8906 12.6094 24.3555 13.7461 23.7695 15.5664C23.1914 17.3867 22.4531 20.2969 21.5547 24.2969L21.1562 26.043C20.2656 24.082 19.6641 22.6914 19.3516 21.8711C18.9297 20.7695 18.4492 19.3789 17.9102 17.6992L16.6211 13.6445C16.4648 14.582 16.0977 16.1641 15.5195 18.3906C14.9492 20.6094 14.6094 21.8867 14.5 22.2227C14.1406 23.2773 13.7539 24.0859 13.3398 24.6484C12.9336 25.2109 12.4844 25.6211 11.9922 25.8789C11.5078 26.1367 10.9727 26.2656 10.3867 26.2656C9.65234 26.2656 9.05078 26.1016 8.58203 25.7734C8.22266 25.5312 8.04297 25.2227 8.04297 24.8477C8.04297 24.6836 8.10938 24.5391 8.24219 24.4141C8.375 24.2812 8.53516 24.2148 8.72266 24.2148C8.96484 24.2148 9.22656 24.3438 9.50781 24.6016C10.0078 25.0625 10.4648 25.293 10.8789 25.293C11.3242 25.293 11.7617 25.0938 12.1914 24.6953C12.832 24.0859 13.4492 22.8086 14.043 20.8633C14.7617 18.5117 15.4531 15.5273 16.1172 11.9102C15.8438 11.9102 15.3203 11.9883 14.5469 12.1445C13.7734 12.3008 13.125 12.5234 12.6016 12.8125C12.0859 13.0938 11.6875 13.4648 11.4062 13.9258C11.1328 14.3789 10.9961 14.8555 10.9961 15.3555C10.9961 15.6055 11.0312 15.8594 11.1016 16.1172C11.1484 16.2891 11.25 16.5 11.4062 16.75C11.5859 17.0391 11.6758 17.2578 11.6758 17.4062C11.6758 17.5938 11.6055 17.7539 11.4648 17.8867C11.332 18.0195 11.1641 18.0859 10.9609 18.0859C10.6641 18.0859 10.4102 17.9336 10.1992 17.6289C9.98828 17.3164 9.88281 16.8438 9.88281 16.2109C9.88281 15.1641 10.1445 14.2734 10.668 13.5391C11.1992 12.8047 11.9062 12.25 12.7891 11.875C13.3516 11.6406 14.4375 11.4141 16.0469 11.1953C16.6406 11.1172 17.1992 11.0156 17.7227 10.8906Z" fill="#F2EAEA"/>
<path d="M57.408 11.16L56.376 27L54.216 27.36L46.44 14.496H46.248L46.32 27L43.92 27.12L44.568 11.4L50.376 11.04L54.576 23.016H54.768L55.008 11.28L57.408 11.16ZM59.3372 27L63.8252 11.04L69.6332 11.4L72.7532 27L70.5932 27.36L68.9372 23.376L62.5532 23.904L61.7372 27.36L59.3372 27ZM64.8812 14.064L62.9852 22.056L68.4092 22.104L65.0732 14.064H64.8812ZM76.2973 11.88C78.6493 11.128 80.8733 10.752 82.9693 10.752C85.0813 10.752 86.8013 11.072 88.1293 11.712C88.6573 13.008 88.9213 14.36 88.9213 15.768C88.9213 17.672 88.4573 19.488 87.5293 21.216C86.6173 22.944 85.2813 24.384 83.5213 25.536C81.7773 26.672 79.8253 27.272 77.6653 27.336L76.2973 11.88ZM84.6493 17.4C84.6493 16.232 84.4733 15.192 84.1213 14.28C83.7853 13.368 83.2973 12.728 82.6573 12.36C82.3693 12.36 82.0173 12.416 81.6013 12.528L80.2813 25.32C81.7213 24.728 82.8093 23.696 83.5453 22.224C84.2813 20.736 84.6493 19.128 84.6493 17.4ZM93.3684 27.336L92.0004 11.4L97.7124 11.04L96.0084 27.096L93.3684 27.336ZM107.448 20.904C107.16 21 106.928 21.048 106.752 21.048L106.104 27.096L103.704 27.336L102.336 11.88C103.184 11.608 104.304 11.36 105.696 11.136C107.104 10.912 108.448 10.8 109.728 10.8C111.776 10.8 113.416 11.184 114.648 11.952C114.936 12.816 115.08 13.608 115.08 14.328C115.08 16.344 113.92 18.008 111.6 19.32L115.632 26.976L113.952 27.912L107.448 20.904ZM110.448 14.976C110.448 13.84 109.944 12.968 108.936 12.36C108.552 12.36 108.12 12.44 107.64 12.6L106.92 19.512C108.024 19.016 108.888 18.352 109.512 17.52C110.136 16.672 110.448 15.824 110.448 14.976Z" fill="#E5E5E5"/>
</svg>
